<svg width="212" height="46" viewBox="0 0 212 46" fill="none" xmlns="http://www.w3.org/2000/svg">
<path d="M1 17.9652C9.70968 18.0082 10.863 22.5885 17.1945 23.889C23.5261 25.1895 26.1773 45.5464 33.4001 44.9888C40.6229 44.4311 43.1318 13.9217 49.5602 12.7721C55.9887 11.6225 56.5199 23.7258 64.9967 22.1044C73.4736 20.483 72.7187 8.09402 80.3529 8.55232C87.9871 9.01061 87.9081 16.0181 95.7894 16.0181C103.671 16.0181 104.424 1.42798 112.753 1.00535C121.083 0.58272 121.257 25.3504 130.2 25.3504C139.143 25.3504 141.955 42.534 149.817 43.6903C157.68 44.8467 155.725 16.3717 163.807 12.2852C171.888 8.19873 170.795 37.2598 178.359 36.5491C185.922 35.8385 188.402 16.1986 194.921 17.8846C201.44 19.5706 204.585 16.1045 211 16.1045" stroke="#E23738" stroke-width="2" stroke-linecap="round"/>
</svg>
