<svg width="190" height="46" viewBox="0 0 190 46" fill="none" xmlns="http://www.w3.org/2000/svg">
<path d="M1 29.8095C8.90187 29.8572 9.78548 35.3595 15.4254 36.9195C21.0653 38.4796 23.4198 18.3302 29.8535 17.6613C36.2873 16.9924 38.5555 43.4387 44.2817 42.0596C50.0078 40.6806 50.4376 28.7403 57.9884 26.7954C65.5392 24.8504 64.895 44.4452 71.6952 44.995C78.4954 45.5447 78.3816 1 85.4019 1C92.4222 1 93.132 31.277 100.551 30.77C107.971 30.263 108.118 13.4053 116.084 13.4053C124.05 13.4053 126.554 28.3748 133.557 29.7619C140.56 31.149 138.802 46.9617 146 42.0596C153.199 37.1576 152.248 18.5138 158.985 17.6613C165.723 16.8088 167.95 28.7475 173.757 30.77C179.563 32.7925 182.345 42.119 188.059 42.119" stroke="#50D1B2" stroke-width="2" stroke-linecap="round"/>
</svg>
